<svg width="32" height="32" viewBox="0 0 32 32" fill="none" xmlns="http://www.w3.org/2000/svg">
<path d="M30.8057 14.8253L25.2145 10.9159V0.660032C25.2145 0.291937 24.9162 0 24.5545 0H6.5432C6.17511 0 5.88317 0.298284 5.88317 0.660032V10.9159L0.291937 14.8253C0.291937 14.8253 0 15.0094 0 15.3775V30.4376C0 30.8057 0.298284 31.0977 0.660032 31.0977H30.4313C30.7994 31.0977 31.0913 30.7994 31.0913 30.4376V15.3711C31.0977 15.003 30.8057 14.8253 30.8057 14.8253ZM29.2826 15.3711L25.2145 18.2143V12.5279L29.2826 15.3711ZM7.20958 1.32641H23.8944V19.1346L15.5488 24.8591L7.20958 19.1346V1.32641ZM5.88317 12.5279V18.2143L1.81509 15.3711L5.88317 12.5279ZM1.32641 29.7712V16.6404L15.1744 26.2045C15.5107 26.4203 15.809 26.2807 15.9233 26.2045L29.7712 16.6404V29.7712H1.32641Z" fill="#793433"/>
<path d="M10.2748 5.41333H20.8226C21.1907 5.41333 21.4826 5.11504 21.4826 4.75329C21.4826 4.3852 21.1843 4.09326 20.8226 4.09326H10.2748C9.90668 4.09326 9.61475 4.39155 9.61475 4.75329C9.61475 5.12139 9.90668 5.41333 10.2748 5.41333Z" fill="#793433"/>
<path d="M10.2748 9.24047H20.8226C21.1907 9.24047 21.4826 8.94219 21.4826 8.58044C21.4826 8.21235 21.1843 7.92041 20.8226 7.92041H10.2748C9.90668 7.92041 9.61475 8.21869 9.61475 8.58044C9.61475 8.94219 9.90668 9.24047 10.2748 9.24047Z" fill="#793433"/>
<path d="M10.2748 13.0608H20.8226C21.1907 13.0608 21.4826 12.7625 21.4826 12.4008C21.4826 12.0327 21.1843 11.7407 20.8226 11.7407H10.2748C9.90668 11.7407 9.61475 12.039 9.61475 12.4008C9.61475 12.7625 9.90668 13.0608 10.2748 13.0608Z" fill="#793433"/>
</svg>
