<svg width="62" height="61" viewBox="0 0 62 61" fill="none" xmlns="http://www.w3.org/2000/svg">
<rect width="62" height="61" fill="#793433"/>
<path d="M44.9264 42.2258L39.2639 26.1992C39.2067 25.9589 38.9665 25.7816 38.7263 25.7816H36.1181C36.8559 24.0028 37.2391 22.6415 37.2391 21.7321C37.2391 18.0372 34.3793 15 30.8045 15C27.2869 15 24.3698 17.98 24.3698 21.7321C24.3698 22.7388 24.8388 24.1973 25.508 25.7816H23.2373C22.9971 25.7816 22.7626 25.9589 22.6997 26.1992L17.0372 42.2258C16.8541 42.8149 17.3975 42.9979 17.5748 42.9979H44.3888C44.629 43.0265 45.1037 42.7577 44.9264 42.2258ZM30.8045 16.184C33.7215 16.184 36.0494 18.6835 36.0494 21.7264C36.0494 24.958 31.5194 32.1534 30.8045 33.3431C29.0142 30.3059 25.5595 24.1058 25.5595 21.7264C25.5595 18.6892 27.8817 16.184 30.8045 16.184ZM18.4099 41.8082L23.6549 26.9713H26.04C27.7502 30.6377 30.8045 35.6081 30.8045 35.6081C30.8045 35.6081 35.4603 27.2745 35.5976 26.9713H38.3087L43.5537 41.8082H18.4099Z" fill="white"/>
<path d="M34.9168 36.6836H27.1094V37.8733H34.9168V36.6836Z" fill="white"/>
<path d="M33.5444 21.189C33.5444 19.7018 32.2918 18.4492 30.8047 18.4492C29.3176 18.4492 28.0649 19.7018 28.0649 21.189C28.0649 22.6761 29.2546 23.9287 30.8047 23.9287C32.3547 23.9287 33.5444 22.6818 33.5444 21.189ZM29.2546 21.1318C29.2546 20.2967 29.9124 19.5817 30.8047 19.5817C31.697 19.5817 32.3547 20.2967 32.3547 21.1318C32.3547 21.9668 31.697 22.6818 30.8047 22.6818C29.9696 22.6818 29.2546 21.9668 29.2546 21.1318Z" fill="white"/>
</svg>
