<svg width="77" height="43" viewBox="0 0 77 43" fill="none" xmlns="http://www.w3.org/2000/svg">
<path d="M38.5 13H32V9.5H22V0.5H38.5V13Z" fill="#793433"/>
<path d="M7.5 0.5H19.5V9.5H11.5V21H0.5V6C1.7 1.6 5.66667 0.5 7.5 0.5Z" fill="#793433"/>
<path d="M11.5 24H0.5V38.5C1.7 42.1 5.33333 43 7 43H19.5V35H11.5V24Z" fill="#793433"/>
<path d="M22 29.5V24H38V43H22V35H32V29.5H22Z" fill="#793433"/>
<path d="M43.5 21V0.5H54V21H43.5Z" fill="#793433"/>
<path d="M43.5 43V24H54V43H43.5Z" fill="#793433"/>
<path d="M57.5 21V0.5H68.5C70.6667 1.33333 75.2 3.9 76 7.5C76.8 11.1 74.6667 14.6667 73.5 16C71.5 18 73 20.1667 74 21H57.5Z" fill="#793433"/>
</svg>

