<svg width="62" height="61" viewBox="0 0 62 61" fill="none" xmlns="http://www.w3.org/2000/svg">
<path d="M0.5 0.5H61.5V60.5H0.5V0.5Z" fill="#793433" stroke="#793433"/>
<path d="M43.3944 39.3376L39.2248 35.1675C38.3944 34.3404 37.0189 34.3657 36.1594 35.2252L34.0589 37.3257C33.9263 37.2523 33.7889 37.1759 33.6444 37.0949C32.318 36.3599 30.5023 35.3525 28.5915 33.4404C26.6755 31.5245 25.6667 29.7059 24.9297 28.3785C24.8515 28.2377 24.7771 28.1023 24.7037 27.9736L26.1136 26.5656L26.8066 25.8716C27.6675 25.0107 27.6914 23.6356 26.8624 22.8062L22.6927 18.6356C21.8643 17.8071 20.4883 17.8323 19.6273 18.6933L18.4521 19.8751L18.4845 19.9071C18.0906 20.4098 17.761 20.9898 17.5163 21.6151C17.2903 22.2103 17.1495 22.7785 17.0852 23.3474C16.5347 27.912 18.6205 32.0834 24.2811 37.7446C32.1057 45.5686 38.4116 44.9777 38.6835 44.9487C39.2764 44.878 39.8439 44.7364 40.4211 44.5122C41.0411 44.2699 41.6207 43.9413 42.1228 43.5482L42.1486 43.5706L43.3391 42.4049C44.1982 41.5441 44.223 40.169 43.3944 39.3376ZM42.4128 41.4778L41.8882 42.0016L41.6792 42.2024C41.3501 42.5206 40.7805 42.9674 39.9488 43.2928C39.4766 43.4745 39.0111 43.5913 38.5374 43.6477C38.4778 43.6534 32.5468 44.1594 25.2063 36.8194C18.9648 30.5783 17.9646 26.9819 18.3839 23.4987C18.4364 23.037 18.5522 22.5724 18.7373 22.0869C19.0655 21.2504 19.5119 20.6813 19.8276 20.3517L20.553 19.6191C20.9026 19.2686 21.4478 19.2418 21.7674 19.5614L25.937 23.731C26.2561 24.051 26.2309 24.5962 25.8808 24.9478L23.0648 27.7609L23.3247 28.1983C23.4692 28.442 23.6219 28.7152 23.785 29.012C24.5596 30.409 25.6194 32.3212 27.6661 34.366C29.7074 36.4084 31.6168 37.4673 33.0095 38.2398C33.3104 38.4063 33.5853 38.5594 33.8318 38.7063L34.2701 38.9662L37.0842 36.1512C37.4352 35.8016 37.9823 35.7758 38.3019 36.0944L42.4696 40.2631C42.7883 40.5825 42.763 41.1277 42.4128 41.4778Z" fill="white"/>
</svg>
