<svg width="97" height="13" viewBox="0 0 97 13" fill="none" xmlns="http://www.w3.org/2000/svg">
<g clip-path="url(#clip0_0_1)">
<path d="M12.971 4.99077C12.9015 4.77678 12.7165 4.62083 12.4939 4.58853L8.71845 4.03999L7.02996 0.618533C6.9304 0.4168 6.72492 0.289062 6.49998 0.289062C6.275 0.289062 6.06953 0.4168 5.97 0.618533L4.28163 4.03995L0.506043 4.58849C0.283428 4.62083 0.0984405 4.77678 0.0289373 4.99073C-0.0405659 5.20472 0.0173928 5.43958 0.178503 5.5966L2.91052 8.25939L2.26533 12.02C2.22731 12.2418 2.31844 12.4659 2.50044 12.5981C2.60339 12.6729 2.72534 12.711 2.84787 12.711C2.94192 12.711 3.03637 12.6886 3.12285 12.6431L6.49994 10.8677L9.87699 12.6431C9.96399 12.6888 10.0593 12.7106 10.1536 12.711C10.4797 12.7105 10.7438 12.4461 10.7438 12.12C10.7438 12.0746 10.7387 12.0303 10.729 11.9879L10.0894 8.25943L12.8214 5.5966C12.9826 5.43958 13.0405 5.20472 12.971 4.99077Z" fill="#FFD12D"/>
</g>
<g clip-path="url(#clip1_0_1)">
<path d="M33.971 4.99077C33.9015 4.77678 33.7165 4.62083 33.4939 4.58853L29.7184 4.03999L28.03 0.618533C27.9304 0.4168 27.7249 0.289062 27.5 0.289062C27.275 0.289062 27.0695 0.4168 26.97 0.618533L25.2816 4.03995L21.506 4.58849C21.2834 4.62083 21.0984 4.77678 21.0289 4.99073C20.9594 5.20472 21.0174 5.43958 21.1785 5.5966L23.9105 8.25939L23.2653 12.02C23.2273 12.2418 23.3184 12.4659 23.5004 12.5981C23.6034 12.6729 23.7253 12.711 23.8479 12.711C23.9419 12.711 24.0364 12.6886 24.1229 12.6431L27.4999 10.8677L30.877 12.6431C30.964 12.6888 31.0593 12.7106 31.1536 12.711C31.4797 12.7105 31.7438 12.4461 31.7438 12.12C31.7438 12.0746 31.7387 12.0303 31.729 11.9879L31.0894 8.25943L33.8214 5.5966C33.9826 5.43958 34.0405 5.20472 33.971 4.99077Z" fill="#FFD12D"/>
</g>
<g clip-path="url(#clip2_0_1)">
<path d="M54.971 4.99077C54.9015 4.77678 54.7165 4.62083 54.4939 4.58853L50.7184 4.03999L49.03 0.618533C48.9304 0.4168 48.7249 0.289062 48.5 0.289062C48.275 0.289062 48.0695 0.4168 47.97 0.618533L46.2816 4.03995L42.506 4.58849C42.2834 4.62083 42.0984 4.77678 42.0289 4.99073C41.9594 5.20472 42.0174 5.43958 42.1785 5.5966L44.9105 8.25939L44.2653 12.02C44.2273 12.2418 44.3184 12.4659 44.5004 12.5981C44.6034 12.6729 44.7253 12.711 44.8479 12.711C44.9419 12.711 45.0364 12.6886 45.1229 12.6431L48.4999 10.8677L51.877 12.6431C51.964 12.6888 52.0593 12.7106 52.1536 12.711C52.4797 12.7105 52.7438 12.4461 52.7438 12.12C52.7438 12.0746 52.7387 12.0303 52.729 11.9879L52.0894 8.25943L54.8214 5.5966C54.9826 5.43958 55.0405 5.20472 54.971 4.99077Z" fill="#FFD12D"/>
</g>
<g clip-path="url(#clip3_0_1)">
<path d="M75.971 4.99077C75.9015 4.77678 75.7165 4.62083 75.4939 4.58853L71.7184 4.03999L70.03 0.618533C69.9304 0.4168 69.7249 0.289062 69.5 0.289062C69.275 0.289062 69.0695 0.4168 68.97 0.618533L67.2816 4.03995L63.506 4.58849C63.2834 4.62083 63.0984 4.77678 63.0289 4.99073C62.9594 5.20472 63.0174 5.43958 63.1785 5.5966L65.9105 8.25939L65.2653 12.02C65.2273 12.2418 65.3184 12.4659 65.5004 12.5981C65.6034 12.6729 65.7253 12.711 65.8479 12.711C65.9419 12.711 66.0364 12.6886 66.1229 12.6431L69.4999 10.8677L72.877 12.6431C72.964 12.6888 73.0593 12.7106 73.1536 12.711C73.4797 12.7105 73.7438 12.4461 73.7438 12.12C73.7438 12.0746 73.7387 12.0303 73.729 11.9879L73.0894 8.25943L75.8214 5.5966C75.9826 5.43958 76.0405 5.20472 75.971 4.99077Z" fill="#FFD12D"/>
</g>
<g clip-path="url(#clip4_0_1)">
<path d="M96.971 4.99077C96.9015 4.77678 96.7165 4.62083 96.4939 4.58853L92.7184 4.03999L91.03 0.618533C90.9304 0.4168 90.7249 0.289062 90.5 0.289062C90.275 0.289062 90.0695 0.4168 89.97 0.618533L88.2816 4.03995L84.506 4.58849C84.2834 4.62083 84.0984 4.77678 84.0289 4.99073C83.9594 5.20472 84.0174 5.43958 84.1785 5.5966L86.9105 8.25939L86.2653 12.02C86.2273 12.2418 86.3184 12.4659 86.5004 12.5981C86.6034 12.6729 86.7253 12.711 86.8479 12.711C86.9419 12.711 87.0364 12.6886 87.1229 12.6431L90.4999 10.8677L93.877 12.6431C93.964 12.6888 94.0593 12.7106 94.1536 12.711C94.4797 12.7105 94.7438 12.4461 94.7438 12.12C94.7438 12.0746 94.7387 12.0303 94.729 11.9879L94.0894 8.25943L96.8214 5.5966C96.9826 5.43958 97.0405 5.20472 96.971 4.99077Z" fill="#FFD12D"/>
</g>
<defs>
<clipPath id="clip0_0_1">
<rect width="13" height="13" fill="white"/>
</clipPath>
<clipPath id="clip1_0_1">
<rect width="13" height="13" fill="white" transform="translate(21)"/>
</clipPath>
<clipPath id="clip2_0_1">
<rect width="13" height="13" fill="white" transform="translate(42)"/>
</clipPath>
<clipPath id="clip3_0_1">
<rect width="13" height="13" fill="white" transform="translate(63)"/>
</clipPath>
<clipPath id="clip4_0_1">
<rect width="13" height="13" fill="white" transform="translate(84)"/>
</clipPath>
</defs>
</svg>
